# xmcd
#
# Track frame offsets: 
#        150
#        14881
#        24887
#        38709
#        53800
#        69863
#        89309
#        99873
#        116386
#        129974
#        139467
#        152992
#        167012
#        176460
#        188077
#        206363
#        219159
#        231604
#        243608
#        254289
#        268759
#        279395
#
# Disc length: 3950 seconds
#
# Revision: 0
# Processed by: cddbd v1.5.2PL0 Copyright (c) Steve Scherf et al.
# Submitted via: ExactAudioCopyFreeDBPlugin 1.0
#
DISCID=300f6c16
DTITLE=Various Artist - Music For Cruizin' - Cd1 Country Cruizin'
DYEAR=2009
DGENRE=Country
TTITLE0=Alan Jackson - Summertime Blues
TTITLE1=Anne Murray - Snowbird
TTITLE2=The Beach Boys - Cotton Fields
TTITLE3=Brooks and Dunn - Boot Scootin' Boogie
TTITLE4=Kenny Rogers - The Gambler
TTITLE5=Loggins and Messina - Danny's Song
TTITLE6=Roger Miller - Engine Engine Nr. 9
TTITLE7=Leann Rimes - You Light Up My Life
TTITLE8=Lobo - Me And You And A Dog Named Boo
TTITLE9=Burl Ives - A Little Bitty Tear
TTITLE10=Glen Campbell - Gentle On My Mind
TTITLE11=Mac Davis - Baby Don't Get Hooked On Me
TTITLE12=Charley Pride - Kiss An Angel Good Mornin'
TTITLE13=Sammi Smith - Help Me Make It Through The Night
TTITLE14=Billy Swan - I Can Help
TTITLE15=Johnny Tillotson - It Just Keeps Right On A-Hurtin'
TTITLE16=Johnny Cash - I Walk The Line
TTITLE17=Skeeter Davis - The End Of The World
TTITLE18=The Statler Brothers - Flowers On The Wall
TTITLE19=Marty Robbins - Cool Water
TTITLE20=The Everly Brothers - Walk Right Back
TTITLE21=Tommy Emmanuel - Countrywide
EXTD=
EXTT0=
EXTT1=
EXTT2=
EXTT3=
EXTT4=
EXTT5=
EXTT6=
EXTT7=
EXTT8=
EXTT9=
EXTT10=
EXTT11=
EXTT12=
EXTT13=
EXTT14=
EXTT15=
EXTT16=
EXTT17=
EXTT18=
EXTT19=
EXTT20=
EXTT21=
PLAYORDER=
